<svg width="293" height="155" viewBox="0 0 293 155" fill="none" xmlns="http://www.w3.org/2000/svg">
<path d="M135.111 145.999C131.51 143.71 128.267 141.038 125.382 137.982C124.569 137.096 123.789 136.18 123.041 135.233H111V154.268H135.111V145.999Z" fill="black"/>
<path fill-rule="evenodd" clip-rule="evenodd" d="M111 115.268H113.246C113.643 116.807 114.093 118.316 114.596 119.793C116.69 125.612 119.505 130.759 123.041 135.233H111V115.268Z" fill="black"/>
<path d="M166.202 154.268C157.46 154.268 149.634 152.858 142.725 150.038C140.031 148.859 137.493 147.513 135.111 145.999V154.268H166.202Z" fill="black"/>
<path fill-rule="evenodd" clip-rule="evenodd" d="M142.725 150.038C149.634 152.858 157.46 154.268 166.202 154.268L237.393 154.268C246.091 154.256 253.81 152.846 260.55 150.038C267.459 147.077 273.24 143.058 277.893 137.982C282.687 132.906 286.282 126.843 288.679 119.793C291.217 112.743 292.486 104.988 292.486 96.5283C292.486 88.2092 291.217 80.5247 288.679 73.4746C286.282 66.4246 282.687 60.3616 277.893 55.2856C273.24 50.2095 267.459 46.2615 260.55 43.4415C253.81 40.4928 246.091 39.0123 237.393 39.0001L179.242 39C180.738 44.7801 181.486 50.9562 181.486 57.5283C181.486 57.6975 181.486 57.8665 181.485 58.0351L237.393 58.0353C242.706 58.0504 247.323 59.1783 251.244 61.4191C255.192 63.6751 258.435 66.6361 260.973 70.3021C263.511 73.8271 265.344 77.9162 266.472 82.5692C267.741 87.2222 268.375 91.8752 268.375 96.5283C268.375 101.322 267.741 106.046 266.472 110.699C265.344 115.211 263.511 119.3 260.973 122.966C258.435 126.632 255.192 129.593 251.244 131.849C247.323 134.09 242.706 135.218 237.393 135.233C237.357 135.233 166.238 135.233 166.202 135.233H135.111V114.752V96.5283C135.111 96.4298 135.111 96.3314 135.112 96.233C135.135 91.6784 135.699 87.1238 136.803 82.5692C138.072 77.9162 139.976 73.8271 142.514 70.3021C145.052 66.6361 148.295 63.6751 152.243 61.4191C153.838 60.5073 155.549 59.7797 157.375 59.2364V57.5283C157.375 52.8752 156.811 48.2222 155.683 43.5692C155.348 42.3401 154.969 41.1504 154.545 40L154.535 39.972C150.339 40.7092 146.402 41.8657 142.725 43.4415C135.957 46.2615 130.176 50.2095 125.382 55.2856C120.729 60.3616 117.134 66.4246 114.596 73.4746C112.227 80.4412 111.029 88.0273 111 96.233L111 96.4094L111 96.5283C111 103.215 111.749 109.462 113.246 115.268C113.643 116.807 114.093 118.316 114.596 119.793C116.69 125.612 119.505 130.759 123.041 135.233C123.789 136.18 124.569 137.096 125.382 137.982C128.267 141.038 131.51 143.71 135.111 145.999C137.493 147.513 140.031 148.859 142.725 150.038Z" fill="black"/>
<path d="M177.891 80.7934C180.24 73.8844 181.438 66.2983 181.485 58.0351C181.486 57.8664 181.486 57.6975 181.486 57.5283L181.485 58.0351L181.486 96.233H169.445C172.981 91.7588 175.796 86.6123 177.891 80.7934Z" fill="#007AFF"/>
<path d="M126.285 115.268C129.339 115.268 132.281 115.096 135.111 114.752C136.087 114.633 137.049 114.494 137.997 114.335C142.176 113.632 146.098 112.533 149.761 111.038C152.456 109.859 154.994 108.513 157.375 106.999V115.268H126.285Z" fill="#007AFF"/>
<path fill-rule="evenodd" clip-rule="evenodd" d="M135.111 114.752C132.281 115.096 129.339 115.268 126.285 115.268L113.246 115.268C111.749 109.462 111 103.215 111 96.5283V115.268L55.093 115.268C46.3954 115.256 38.6766 113.846 31.9366 111.038C25.0276 108.077 19.2466 104.058 14.5936 98.9825C9.79956 93.9064 6.2041 87.8434 3.80707 80.7934C1.26904 73.7433 0 65.9883 0 57.5283C0 49.2092 1.26904 41.5247 3.80707 34.4747C6.2041 27.4246 9.79956 21.3616 14.5936 16.2856C19.2466 11.2095 25.0276 7.26154 31.9366 4.44153C38.6766 1.4928 46.3954 0.0122986 55.093 6.10352e-05L126.285 0C135.027 0 142.852 1.4805 149.761 4.44153C156.529 7.26154 162.31 11.2095 167.104 16.2856C171.758 21.3616 175.353 27.4246 177.891 34.4747C178.394 35.9551 178.845 37.4636 179.242 39H166.202C162.112 39 158.223 39.324 154.535 39.972C153.356 36.7784 151.835 33.8885 149.973 31.3021C147.435 27.6361 144.192 24.6751 140.244 22.4191C136.296 20.1631 131.643 19.0351 126.285 19.0351L55.093 19.0352C49.7808 19.0504 45.164 20.1784 41.2427 22.4191C37.2947 24.6751 34.0517 27.6361 31.5137 31.3021C28.9756 34.8271 27.1426 38.9162 26.0146 43.5692C24.7457 48.2222 24.1111 52.8752 24.1111 57.5283C24.1111 62.3223 24.7457 67.0458 26.0146 71.6989C27.1426 76.2109 28.9756 80.2999 31.5137 83.9659C34.0517 87.6319 37.2947 90.593 41.2427 92.8489C45.164 95.0897 49.7808 96.2176 55.093 96.2328L104.994 96.233H126.285H135.112H157.375V106.999C154.994 108.513 152.456 109.859 149.761 111.038C146.098 112.533 142.176 113.632 137.997 114.335C137.551 113.155 137.153 111.943 136.803 110.699C135.675 106.046 135.111 101.322 135.111 96.5283V114.752Z" fill="#007AFF"/>
<path fill-rule="evenodd" clip-rule="evenodd" d="M154.545 40L154.535 39.972C158.224 39.324 162.113 39 166.202 39H179.243C180.739 44.7801 181.487 50.9562 181.487 57.5283C181.487 57.6975 181.486 57.8665 181.485 58.0351H166.202C163.01 58.0351 160.068 58.4355 157.376 59.2364V57.5283C157.376 52.8752 156.812 48.2222 155.684 43.5692C155.349 42.3401 154.969 41.1504 154.545 40Z" fill="black"/>
<path fill-rule="evenodd" clip-rule="evenodd" d="M177.891 80.7932C180.24 73.8842 181.438 66.2981 181.485 58.0349H166.202C163.009 58.0349 160.067 58.4354 157.375 59.2362V96.2328V106.999V115.268H181.486V96.2328H169.445C172.981 91.7587 175.796 86.6121 177.891 80.7932ZM113.246 115.268H111V96.5281C111 103.215 111.749 109.462 113.246 115.268ZM135.111 114.752C136.086 114.633 137.049 114.494 137.997 114.334C137.551 113.155 137.153 111.943 136.803 110.699C135.675 106.046 135.111 101.322 135.111 96.5281V114.752Z" fill="#007AFF"/>
</svg>



